<?xml version="1.0" encoding="utf-8"?>
<!-- Generator: Adobe Illustrator 22.1.0, SVG Export Plug-In . SVG Version: 6.00 Build 0)  -->
<svg version="1.1" id="Layer_1" xmlns="http://www.w3.org/2000/svg" xmlns:xlink="http://www.w3.org/1999/xlink" x="0px" y="0px"
	 viewBox="0 0 2213 608.6" style="enable-background:new 0 0 2213 608.6;" xml:space="preserve">
<style type="text/css">
	.st0{fill:none;stroke:#000000;stroke-width:0.9;}
	.st1{fill:#FFFFFF;stroke:#000000;stroke-miterlimit:10;}
	.st2{fill:none;stroke:#FF0000;stroke-miterlimit:10;}
	.st3{fill:none;stroke:#000000;stroke-miterlimit:10;}
	.st4{fill:none;stroke:#FF0000;stroke-width:0.9;}
</style>
<g transform="translate(22.5000185, 22.5000185) ">
	<polygon class="st0" points="-4.5,-4.5 25.3,-4.5 25.3,4 55,4 55,-4.5 77.7,-4.5 77.7,4 100.4,4 100.4,-4.5 123.1,-4.5 123.1,4 
		145.7,4 145.7,-4.5 168.4,-4.5 168.4,4 191.1,4 191.1,-4.5 213.8,-4.5 213.8,4 236.4,4 236.4,-4.5 259.1,-4.5 259.1,4 281.8,4 
		281.8,-4.5 304.5,-4.5 304.5,4 327.2,4 327.2,-4.5 349.8,-4.5 349.8,4 372.5,4 372.5,-4.5 395.2,-4.5 395.2,4 417.9,4 417.9,-4.5 
		440.5,-4.5 440.5,4 463.2,4 463.2,-4.5 485.9,-4.5 485.9,4 508.6,4 508.6,-4.5 531.2,-4.5 531.2,4 553.9,4 553.9,-4.5 576.6,-4.5 
		576.6,4 599.3,4 599.3,-4.5 622,-4.5 622,4 644.6,4 644.6,-4.5 667.3,-4.5 667.3,4 690,4 690,-4.5 712.7,-4.5 712.7,4 735.3,4 
		735.3,-4.5 758,-4.5 758,4 780.7,4 780.7,-4.5 803.4,-4.5 803.4,4 833.1,4 833.1,-4.5 862.9,-4.5 862.9,21.6 854.4,21.6 
		854.4,47.7 862.9,47.7 862.9,73.7 854.4,73.7 854.4,99.8 862.9,99.8 862.9,125.9 833.1,125.9 833.1,117.4 803.4,117.4 803.4,125.9 
		780.7,125.9 780.7,117.4 758,117.4 758,125.9 735.3,125.9 735.3,117.4 712.7,117.4 712.7,125.9 690,125.9 690,117.4 667.3,117.4 
		667.3,125.9 644.6,125.9 644.6,117.4 622,117.4 622,125.9 599.3,125.9 599.3,117.4 576.6,117.4 576.6,125.9 553.9,125.9 
		553.9,117.4 531.2,117.4 531.2,125.9 508.6,125.9 508.6,117.4 485.9,117.4 485.9,125.9 463.2,125.9 463.2,117.4 440.5,117.4 
		440.5,125.9 417.9,125.9 417.9,117.4 395.2,117.4 395.2,125.9 372.5,125.9 372.5,117.4 349.8,117.4 349.8,125.9 327.2,125.9 
		327.2,117.4 304.5,117.4 304.5,125.9 281.8,125.9 281.8,117.4 259.1,117.4 259.1,125.9 236.4,125.9 236.4,117.4 213.8,117.4 
		213.8,125.9 191.1,125.9 191.1,117.4 168.4,117.4 168.4,125.9 145.7,125.9 145.7,117.4 123.1,117.4 123.1,125.9 100.4,125.9 
		100.4,117.4 77.7,117.4 77.7,125.9 55,125.9 55,117.4 25.3,117.4 25.3,125.9 -4.5,125.9 -4.5,99.8 4,99.8 4,73.7 -4.5,73.7 
		-4.5,47.7 4,47.7 4,21.6 -4.5,21.6 	"/>
</g>
<g transform="translate(1106.7528785000002, 22.5000185) ">
	<polygon class="st0" points="-221.4,-4.5 -191.6,-4.5 -191.6,4 -161.8,4 -161.8,-4.5 -139.1,-4.5 -139.1,4 -116.5,4 -116.5,-4.5 
		-93.8,-4.5 -93.8,4 -71.1,4 -71.1,-4.5 -48.4,-4.5 -48.4,4 -25.8,4 -25.8,-4.5 -3.1,-4.5 -3.1,4 19.6,4 19.6,-4.5 42.3,-4.5 
		42.3,4 64.9,4 64.9,-4.5 87.6,-4.5 87.6,4 110.3,4 110.3,-4.5 133,-4.5 133,4 155.7,4 155.7,-4.5 178.3,-4.5 178.3,4 201,4 
		201,-4.5 223.7,-4.5 223.7,4 246.4,4 246.4,-4.5 269,-4.5 269,4 291.7,4 291.7,-4.5 314.4,-4.5 314.4,4 337.1,4 337.1,-4.5 
		359.8,-4.5 359.8,4 382.4,4 382.4,-4.5 405.1,-4.5 405.1,4 427.8,4 427.8,-4.5 450.5,-4.5 450.5,4 473.1,4 473.1,-4.5 495.8,-4.5 
		495.8,4 518.5,4 518.5,-4.5 541.2,-4.5 541.2,4 563.8,4 563.8,-4.5 586.5,-4.5 586.5,4 616.3,4 616.3,-4.5 646.1,-4.5 646.1,21.6 
		637.5,21.6 637.5,47.7 646.1,47.7 646.1,73.7 637.5,73.7 637.5,99.8 646.1,99.8 646.1,125.9 616.3,125.9 616.3,117.4 586.5,117.4 
		586.5,125.9 563.8,125.9 563.8,117.4 541.2,117.4 541.2,125.9 518.5,125.9 518.5,117.4 495.8,117.4 495.8,125.9 473.1,125.9 
		473.1,117.4 450.5,117.4 450.5,125.9 427.8,125.9 427.8,117.4 405.1,117.4 405.1,125.9 382.4,125.9 382.4,117.4 359.8,117.4 
		359.8,125.9 337.1,125.9 337.1,117.4 314.4,117.4 314.4,125.9 291.7,125.9 291.7,117.4 269,117.4 269,125.9 246.4,125.9 
		246.4,117.4 223.7,117.4 223.7,125.9 201,125.9 201,117.4 178.3,117.4 178.3,125.9 155.7,125.9 155.7,117.4 133,117.4 133,125.9 
		110.3,125.9 110.3,117.4 87.6,117.4 87.6,125.9 64.9,125.9 64.9,117.4 42.3,117.4 42.3,125.9 19.6,125.9 19.6,117.4 -3.1,117.4 
		-3.1,125.9 -25.8,125.9 -25.8,117.4 -48.4,117.4 -48.4,125.9 -71.1,125.9 -71.1,117.4 -93.8,117.4 -93.8,125.9 -116.5,125.9 
		-116.5,117.4 -139.1,117.4 -139.1,125.9 -161.8,125.9 -161.8,117.4 -191.6,117.4 -191.6,125.9 -221.4,125.9 -221.4,99.8 
		-212.8,99.8 -212.8,73.7 -221.4,73.7 -221.4,47.7 -212.8,47.7 -212.8,21.6 -221.4,21.6 	"/>
</g>
<g transform="translate(2191.0057385, 22.5000185) ">
	<polygon class="st0" points="-429.7,-4.5 -401.4,-4.5 -401.4,4 -364.5,4 -364.5,-4.5 -341.8,-4.5 -341.8,4 -319.1,4 -319.1,-4.5 
		-296.5,-4.5 -296.5,4 -273.8,4 -273.8,-4.5 -251.1,-4.5 -251.1,4 -228.4,4 -228.4,-4.5 -205.8,-4.5 -205.8,4 -183.1,4 -183.1,-4.5 
		-160.4,-4.5 -160.4,4 -137.7,4 -137.7,-4.5 -115.1,-4.5 -115.1,4 -92.4,4 -92.4,-4.5 -69.7,-4.5 -69.7,4 -32.8,4 -32.8,-4.5 
		-4.5,-4.5 -4.5,21.6 4,21.6 4,47.7 -4.5,47.7 -4.5,73.7 4,73.7 4,99.8 -4.5,99.8 -4.5,125.9 -32.8,125.9 -32.8,117.4 -69.7,117.4 
		-69.7,125.9 -92.4,125.9 -92.4,117.4 -115.1,117.4 -115.1,125.9 -137.7,125.9 -137.7,117.4 -160.4,117.4 -160.4,125.9 
		-183.1,125.9 -183.1,117.4 -205.8,117.4 -205.8,125.9 -228.4,125.9 -228.4,117.4 -251.1,117.4 -251.1,125.9 -273.8,125.9 
		-273.8,117.4 -296.5,117.4 -296.5,125.9 -319.1,125.9 -319.1,117.4 -341.8,117.4 -341.8,125.9 -364.5,125.9 -364.5,117.4 
		-401.4,117.4 -401.4,125.9 -429.7,125.9 -429.7,99.8 -438.2,99.8 -438.2,73.7 -429.7,73.7 -429.7,47.7 -438.2,47.7 -438.2,21.6 
		-429.7,21.6 	"/>
</g>
<g transform="translate(2191.0057385, 185.4922785) ">
	<polygon class="st0" points="-429.7,-37.1 -401.4,-37.1 -401.4,-28.6 -364.5,-28.6 -364.5,-37.1 -341.8,-37.1 -341.8,-28.6 
		-319.1,-28.6 -319.1,-37.1 -296.5,-37.1 -296.5,-28.6 -273.8,-28.6 -273.8,-37.1 -251.1,-37.1 -251.1,-28.6 -228.4,-28.6 
		-228.4,-37.1 -205.8,-37.1 -205.8,-28.6 -183.1,-28.6 -183.1,-37.1 -160.4,-37.1 -160.4,-28.6 -137.7,-28.6 -137.7,-37.1 
		-115.1,-37.1 -115.1,-28.6 -92.4,-28.6 -92.4,-37.1 -69.7,-37.1 -69.7,-28.6 -32.8,-28.6 -32.8,-37.1 -4.5,-37.1 -4.5,-11 4,-11 
		4,15.1 -4.5,15.1 -4.5,41.1 4,41.1 4,67.2 -4.5,67.2 -4.5,93.3 -32.8,93.3 -32.8,84.8 -69.7,84.8 -69.7,93.3 -92.4,93.3 
		-92.4,84.8 -115.1,84.8 -115.1,93.3 -137.7,93.3 -137.7,84.8 -160.4,84.8 -160.4,93.3 -183.1,93.3 -183.1,84.8 -205.8,84.8 
		-205.8,93.3 -228.4,93.3 -228.4,84.8 -251.1,84.8 -251.1,93.3 -273.8,93.3 -273.8,84.8 -296.5,84.8 -296.5,93.3 -319.1,93.3 
		-319.1,84.8 -341.8,84.8 -341.8,93.3 -364.5,93.3 -364.5,84.8 -401.4,84.8 -401.4,93.3 -429.7,93.3 -429.7,67.2 -438.2,67.2 
		-438.2,41.1 -429.7,41.1 -429.7,15.1 -438.2,15.1 -438.2,-11 -429.7,-11 	"/>
</g>
<g transform="translate(22.5000185, 185.4922785) ">
	<polygon class="st0" points="4,-28.6 25.3,-28.6 25.3,-37.1 55,-37.1 55,-28.6 77.7,-28.6 77.7,-37.1 100.4,-37.1 100.4,-28.6 
		123.1,-28.6 123.1,-37.1 145.7,-37.1 145.7,-28.6 168.4,-28.6 168.4,-37.1 191.1,-37.1 191.1,-28.6 213.8,-28.6 213.8,-37.1 
		236.4,-37.1 236.4,-28.6 259.1,-28.6 259.1,-37.1 281.8,-37.1 281.8,-28.6 304.5,-28.6 304.5,-37.1 327.2,-37.1 327.2,-28.6 
		349.8,-28.6 349.8,-37.1 372.5,-37.1 372.5,-28.6 395.2,-28.6 395.2,-37.1 417.9,-37.1 417.9,-28.6 440.5,-28.6 440.5,-37.1 
		463.2,-37.1 463.2,-28.6 485.9,-28.6 485.9,-37.1 508.6,-37.1 508.6,-28.6 531.2,-28.6 531.2,-37.1 553.9,-37.1 553.9,-28.6 
		576.6,-28.6 576.6,-37.1 599.3,-37.1 599.3,-28.6 622,-28.6 622,-37.1 644.6,-37.1 644.6,-28.6 667.3,-28.6 667.3,-37.1 690,-37.1 
		690,-28.6 712.7,-28.6 712.7,-37.1 735.3,-37.1 735.3,-28.6 758,-28.6 758,-37.1 780.7,-37.1 780.7,-28.6 803.4,-28.6 803.4,-37.1 
		833.1,-37.1 833.1,-28.6 854.4,-28.6 854.4,-0.2 862.9,-0.2 862.9,36.6 854.4,36.6 854.4,59.3 862.9,59.3 862.9,82 854.4,82 
		854.4,104.6 862.9,104.6 862.9,127.3 854.4,127.3 854.4,150 862.9,150 862.9,172.7 854.4,172.7 854.4,195.3 862.9,195.3 862.9,218 
		854.4,218 854.4,240.7 862.9,240.7 862.9,263.4 854.4,263.4 854.4,286.1 862.9,286.1 862.9,308.7 854.4,308.7 854.4,331.4 
		862.9,331.4 862.9,368.3 854.4,368.3 854.4,396.6 833.1,396.6 833.1,405.1 803.4,405.1 803.4,396.6 780.7,396.6 780.7,405.1 
		758,405.1 758,396.6 735.3,396.6 735.3,405.1 712.7,405.1 712.7,396.6 690,396.6 690,405.1 667.3,405.1 667.3,396.6 644.6,396.6 
		644.6,405.1 622,405.1 622,396.6 599.3,396.6 599.3,405.1 576.6,405.1 576.6,396.6 553.9,396.6 553.9,405.1 531.2,405.1 
		531.2,396.6 508.6,396.6 508.6,405.1 485.9,405.1 485.9,396.6 463.2,396.6 463.2,405.1 440.5,405.1 440.5,396.6 417.9,396.6 
		417.9,405.1 395.2,405.1 395.2,396.6 372.5,396.6 372.5,405.1 349.8,405.1 349.8,396.6 327.2,396.6 327.2,405.1 304.5,405.1 
		304.5,396.6 281.8,396.6 281.8,405.1 259.1,405.1 259.1,396.6 236.4,396.6 236.4,405.1 213.8,405.1 213.8,396.6 191.1,396.6 
		191.1,405.1 168.4,405.1 168.4,396.6 145.7,396.6 145.7,405.1 123.1,405.1 123.1,396.6 100.4,396.6 100.4,405.1 77.7,405.1 
		77.7,396.6 55,396.6 55,405.1 25.3,405.1 25.3,396.6 4,396.6 4,368.3 -4.5,368.3 -4.5,331.4 4,331.4 4,308.7 -4.5,308.7 
		-4.5,286.1 4,286.1 4,263.4 -4.5,263.4 -4.5,240.7 4,240.7 4,218 -4.5,218 -4.5,195.3 4,195.3 4,172.7 -4.5,172.7 -4.5,150 4,150 
		4,127.3 -4.5,127.3 -4.5,104.6 4,104.6 4,82 -4.5,82 -4.5,59.3 4,59.3 4,36.6 -4.5,36.6 -4.5,-0.2 4,-0.2 	"/>
</g>
<g transform="translate(1106.7528785000002, 185.4922785) ">
	<polygon class="st0" points="-212.8,-28.6 -191.6,-28.6 -191.6,-37.1 -161.8,-37.1 -161.8,-28.6 -139.1,-28.6 -139.1,-37.1 
		-116.5,-37.1 -116.5,-28.6 -93.8,-28.6 -93.8,-37.1 -71.1,-37.1 -71.1,-28.6 -48.4,-28.6 -48.4,-37.1 -25.8,-37.1 -25.8,-28.6 
		-3.1,-28.6 -3.1,-37.1 19.6,-37.1 19.6,-28.6 42.3,-28.6 42.3,-37.1 64.9,-37.1 64.9,-28.6 87.6,-28.6 87.6,-37.1 110.3,-37.1 
		110.3,-28.6 133,-28.6 133,-37.1 155.7,-37.1 155.7,-28.6 178.3,-28.6 178.3,-37.1 201,-37.1 201,-28.6 223.7,-28.6 223.7,-37.1 
		246.4,-37.1 246.4,-28.6 269,-28.6 269,-37.1 291.7,-37.1 291.7,-28.6 314.4,-28.6 314.4,-37.1 337.1,-37.1 337.1,-28.6 
		359.8,-28.6 359.8,-37.1 382.4,-37.1 382.4,-28.6 405.1,-28.6 405.1,-37.1 427.8,-37.1 427.8,-28.6 450.5,-28.6 450.5,-37.1 
		473.1,-37.1 473.1,-28.6 495.8,-28.6 495.8,-37.1 518.5,-37.1 518.5,-28.6 541.2,-28.6 541.2,-37.1 563.8,-37.1 563.8,-28.6 
		586.5,-28.6 586.5,-37.1 616.3,-37.1 616.3,-28.6 637.5,-28.6 637.5,-0.2 646.1,-0.2 646.1,36.6 637.5,36.6 637.5,59.3 646.1,59.3 
		646.1,82 637.5,82 637.5,104.6 646.1,104.6 646.1,127.3 637.5,127.3 637.5,150 646.1,150 646.1,172.7 637.5,172.7 637.5,195.3 
		646.1,195.3 646.1,218 637.5,218 637.5,240.7 646.1,240.7 646.1,263.4 637.5,263.4 637.5,286.1 646.1,286.1 646.1,308.7 
		637.5,308.7 637.5,331.4 646.1,331.4 646.1,368.3 637.5,368.3 637.5,396.6 616.3,396.6 616.3,405.1 586.5,405.1 586.5,396.6 
		563.8,396.6 563.8,405.1 541.2,405.1 541.2,396.6 518.5,396.6 518.5,405.1 495.8,405.1 495.8,396.6 473.1,396.6 473.1,405.1 
		450.5,405.1 450.5,396.6 427.8,396.6 427.8,405.1 405.1,405.1 405.1,396.6 382.4,396.6 382.4,405.1 359.8,405.1 359.8,396.6 
		337.1,396.6 337.1,405.1 314.4,405.1 314.4,396.6 291.7,396.6 291.7,405.1 269,405.1 269,396.6 246.4,396.6 246.4,405.1 
		223.7,405.1 223.7,396.6 201,396.6 201,405.1 178.3,405.1 178.3,396.6 155.7,396.6 155.7,405.1 133,405.1 133,396.6 110.3,396.6 
		110.3,405.1 87.6,405.1 87.6,396.6 64.9,396.6 64.9,405.1 42.3,405.1 42.3,396.6 19.6,396.6 19.6,405.1 -3.1,405.1 -3.1,396.6 
		-25.8,396.6 -25.8,405.1 -48.4,405.1 -48.4,396.6 -71.1,396.6 -71.1,405.1 -93.8,405.1 -93.8,396.6 -116.5,396.6 -116.5,405.1 
		-139.1,405.1 -139.1,396.6 -161.8,396.6 -161.8,405.1 -191.6,405.1 -191.6,396.6 -212.8,396.6 -212.8,368.3 -221.4,368.3 
		-221.4,331.4 -212.8,331.4 -212.8,308.7 -221.4,308.7 -221.4,286.1 -212.8,286.1 -212.8,263.4 -221.4,263.4 -221.4,240.7 
		-212.8,240.7 -212.8,218 -221.4,218 -221.4,195.3 -212.8,195.3 -212.8,172.7 -221.4,172.7 -221.4,150 -212.8,150 -212.8,127.3 
		-221.4,127.3 -221.4,104.6 -212.8,104.6 -212.8,82 -221.4,82 -221.4,59.3 -212.8,59.3 -212.8,36.6 -221.4,36.6 -221.4,-0.2 
		-212.8,-0.2 	"/>
</g>
<g>
	<rect x="502" y="507.2" class="st1" width="189.9" height="7.6"/>
	<rect x="490.3" y="498" class="st2" width="213.4" height="26.1"/>
	<circle class="st2" cx="496.3" cy="511.3" r="2.3"/>
	<circle class="st2" cx="697.6" cy="511.3" r="2.3"/>
</g>
<g>
	<rect x="408.2" y="381.2" class="st3" width="93.5" height="93.5"/>
	<rect x="420.7" y="393.7" class="st2" width="68.6" height="68.6"/>
	<circle class="st2" cx="455" cy="428" r="33.7"/>
	<circle class="st2" cx="495.5" cy="428" r="5.7"/>
	<circle class="st2" cx="414.5" cy="428" r="5.7"/>
</g>
<g>
	<g>
		<circle class="st3" cx="307" cy="511" r="9.6"/>
		<rect x="290" y="494" class="st2" width="34" height="34"/>
	</g>
	<rect x="278.7" y="489.7" class="st2" width="73.7" height="53.9"/>
	<circle class="st2" cx="290" cy="536.6" r="4.3"/>
	<circle class="st2" cx="340.7" cy="537.1" r="4.3"/>
</g>
<g>
	<rect x="16.9" y="359.8" class="st4" width="289.1" height="176.2"/>
	<rect x="306.9" y="359.8" class="st4" width="289.1" height="176.2"/>
</g>
</svg>
