<?xml version="1.0" encoding="utf-8"?>
<!-- Generator: Adobe Illustrator 22.1.0, SVG Export Plug-In . SVG Version: 6.00 Build 0)  -->
<svg version="1.1" id="Layer_1" xmlns="http://www.w3.org/2000/svg" xmlns:xlink="http://www.w3.org/1999/xlink" x="0px" y="0px"
	 viewBox="0 0 1023.9 576.9" style="enable-background:new 0 0 1023.9 576.9;" xml:space="preserve">
<style type="text/css">
	.st0{fill:none;stroke:#000000;stroke-width:0.9;}
	.st1{fill:none;stroke:#000000;stroke-miterlimit:10;}
	.st2{fill:#FFFFFF;stroke:#000000;stroke-miterlimit:10;}
</style>
<g transform="translate(22.5, 22.5) ">
	<polygon class="st0" points="136.9,-22 181.9,-22 181.9,-13.6 226.9,-13.6 226.9,-22 262.9,-22 262.9,-13.6 298.9,-13.6 298.9,-22 
		334.9,-22 334.9,-13.6 379.9,-13.6 379.9,-22 424.9,-22 424.9,23 416.4,23 416.4,68 424.9,68 424.9,104 416.4,104 416.4,139.9 
		424.9,139.9 424.9,175.9 416.4,175.9 416.4,220.9 424.9,220.9 424.9,266 379.9,266 379.9,257.5 334.9,257.5 334.9,266 298.9,266 
		298.9,257.5 262.9,257.5 262.9,266 226.9,266 226.9,257.5 181.9,257.5 181.9,266 136.9,266 136.9,220.9 145.4,220.9 145.4,175.9 
		136.9,175.9 136.9,139.9 145.4,139.9 145.4,104 136.9,104 136.9,68 145.4,68 145.4,23 136.9,23 	"/>
</g>
<g transform="translate(382.5, 22.5) ">
	<polygon class="st0" points="64.9,-22 109.9,-22 109.9,-13.6 154.9,-13.6 154.9,-22 190.9,-22 190.9,-13.6 226.9,-13.6 226.9,-22 
		262.9,-22 262.9,-13.6 307.9,-13.6 307.9,-22 352.9,-22 352.9,23 344.4,23 344.4,68 352.9,68 352.9,104 344.4,104 344.4,139.9 
		352.9,139.9 352.9,175.9 344.4,175.9 344.4,220.9 352.9,220.9 352.9,266 307.9,266 307.9,257.5 262.9,257.5 262.9,266 226.9,266 
		226.9,257.5 190.9,257.5 190.9,266 154.9,266 154.9,257.5 109.9,257.5 109.9,266 64.9,266 64.9,220.9 73.4,220.9 73.4,175.9 
		64.9,175.9 64.9,139.9 73.4,139.9 73.4,104 64.9,104 64.9,68 73.4,68 73.4,23 64.9,23 	"/>
</g>
<g transform="translate(742.5, 22.5) ">
	<polygon class="st0" points="1.4,-22 37.9,-22 37.9,-13.6 82.9,-13.6 82.9,-22 118.9,-22 118.9,-13.6 154.9,-13.6 154.9,-22 
		190.9,-22 190.9,-13.6 235.9,-13.6 235.9,-22 272.4,-22 272.4,23 280.9,23 280.9,68 272.4,68 272.4,104 280.9,104 280.9,139.9 
		272.4,139.9 272.4,175.9 280.9,175.9 280.9,220.9 272.4,220.9 272.4,266 235.9,266 235.9,257.5 190.9,257.5 190.9,266 154.9,266 
		154.9,257.5 118.9,257.5 118.9,266 82.9,266 82.9,257.5 37.9,257.5 37.9,266 1.4,266 1.4,220.9 -7.1,220.9 -7.1,175.9 1.4,175.9 
		1.4,139.9 -7.1,139.9 -7.1,104 1.4,104 1.4,68 -7.1,68 -7.1,23 1.4,23 	"/>
</g>
<g transform="translate(742.5, 382.5) ">
	<polygon class="st0" points="1.4,-94 37.9,-94 37.9,-85.6 82.9,-85.6 82.9,-94 118.9,-94 118.9,-85.6 154.9,-85.6 154.9,-94 
		190.9,-94 190.9,-85.6 235.9,-85.6 235.9,-94 272.4,-94 272.4,-49 280.9,-49 280.9,-4 272.4,-4 272.4,32 280.9,32 280.9,68 
		272.4,68 272.4,104 280.9,104 280.9,149 272.4,149 272.4,194 235.9,194 235.9,185.5 190.9,185.5 190.9,194 154.9,194 154.9,185.5 
		118.9,185.5 118.9,194 82.9,194 82.9,185.5 37.9,185.5 37.9,194 1.4,194 1.4,149 -7.1,149 -7.1,104 1.4,104 1.4,68 -7.1,68 
		-7.1,32 1.4,32 1.4,-4 -7.1,-4 -7.1,-49 1.4,-49 	"/>
</g>
<g transform="translate(22.5, 382.5) ">
	<polygon class="st0" points="145.4,-85.6 181.9,-85.6 181.9,-94 226.9,-94 226.9,-85.6 262.9,-85.6 262.9,-94 298.9,-94 
		298.9,-85.6 334.9,-85.6 334.9,-94 379.9,-94 379.9,-85.6 416.4,-85.6 416.4,-49 424.9,-49 424.9,-4 416.4,-4 416.4,32 424.9,32 
		424.9,68 416.4,68 416.4,104 424.9,104 424.9,149 416.4,149 416.4,185.5 379.9,185.5 379.9,194 334.9,194 334.9,185.5 298.9,185.5 
		298.9,194 262.9,194 262.9,185.5 226.9,185.5 226.9,194 181.9,194 181.9,185.5 145.4,185.5 145.4,149 136.9,149 136.9,104 
		145.4,104 145.4,68 136.9,68 136.9,32 145.4,32 145.4,-4 136.9,-4 136.9,-49 145.4,-49 	"/>
</g>
<g transform="translate(382.5, 382.5) ">
	<polygon class="st0" points="73.4,-85.6 109.9,-85.6 109.9,-94 154.9,-94 154.9,-85.6 190.9,-85.6 190.9,-94 226.9,-94 
		226.9,-85.6 262.9,-85.6 262.9,-94 307.9,-94 307.9,-85.6 344.4,-85.6 344.4,-49 352.9,-49 352.9,-4 344.4,-4 344.4,32 352.9,32 
		352.9,68 344.4,68 344.4,104 352.9,104 352.9,149 344.4,149 344.4,185.5 307.9,185.5 307.9,194 262.9,194 262.9,185.5 226.9,185.5 
		226.9,194 190.9,194 190.9,185.5 154.9,185.5 154.9,194 109.9,194 109.9,185.5 73.4,185.5 73.4,149 64.9,149 64.9,104 73.4,104 
		73.4,68 64.9,68 64.9,32 73.4,32 73.4,-4 64.9,-4 64.9,-49 73.4,-49 	"/>
</g>
<polyline class="st1" points="377.9,201.6 377.9,287 369.4,287 369.4,210.9 "/>
<path class="st1" d="M377.8,201.9c0-5.1-4.2-9.1-9.3-9c-4.7,0.1-8.6,4-8.7,8.7c-0.1,5.1,3.9,9.3,9,9.3"/>
<polyline class="st1" points="229.3,202.1 229.3,287.5 237.8,287.5 237.8,211.4 "/>
<path class="st1" d="M229.4,202.4c0-5.1,4.2-9.1,9.3-9c4.7,0.1,8.6,4,8.7,8.7c0.1,5.1-3.9,9.3-9,9.3"/>
<polyline class="st1" points="665.9,201.6 665.9,287 657.4,287 657.4,210.9 "/>
<path class="st1" d="M665.8,201.9c0-5-4-9-9-9c-5,0-9,4-9,9s4,9,9,9"/>
<polyline class="st1" points="517.3,202.1 517.3,287.5 525.8,287.5 525.8,211.4 "/>
<path class="st1" d="M517.4,202.4c0-5,4-9,9-9s9,4,9,9s-4,9-9,9"/>
<g>
	<path class="st2" d="M886.3,212.6c0,3.8-3.2,6.8-7.3,6.8c-4,0-7.3-3.1-7.3-6.8"/>
	<line class="st1" x1="886.6" y1="213.1" x2="886.6" y2="155.3"/>
	<g>
		<ellipse class="st2" cx="879.2" cy="143.6" rx="14.2" ry="13.4"/>
		<line class="st1" x1="871.8" y1="214.3" x2="871.8" y2="155.3"/>
	</g>
</g>
<circle class="st1" cx="591.7" cy="144.1" r="23"/>
<circle class="st1" cx="303.4" cy="144.1" r="23"/>
<g>
	<circle class="st1" cx="35.9" cy="111.1" r="23"/>
	<circle class="st1" cx="35.9" cy="111.1" r="35.4"/>
</g>
<g>
	<circle class="st1" cx="111.3" cy="111.1" r="23"/>
	<circle class="st1" cx="111.3" cy="111.1" r="35.4"/>
</g>
<g>
	<circle class="st1" cx="35.9" cy="36.1" r="23"/>
	<circle class="st1" cx="35.9" cy="36.1" r="35.4"/>
</g>
<g>
	<circle class="st1" cx="111.3" cy="36.1" r="23"/>
	<circle class="st1" cx="111.3" cy="36.1" r="35.4"/>
</g>
</svg>
